<?xml version="1.0" standalone="no"?>
<!DOCTYPE svg PUBLIC "-//W3C//DTD SVG 20010904//EN"
 "http://www.w3.org/TR/2001/REC-SVG-20010904/DTD/svg10.dtd">
<svg version="1.0" xmlns="http://www.w3.org/2000/svg"
 width="150.000000pt" height="148.000000pt" viewBox="0 0 150.000000 148.000000"
 preserveAspectRatio="xMidYMid meet">

<g transform="translate(0.000000,148.000000) scale(0.100000,-0.100000)"
fill="#000000" stroke="none">
<path d="M615 1433 c-276 -62 -489 -268 -550 -533 -21 -92 -19 -240 4 -332
113 -439 606 -658 1010 -448 323 168 464 572 316 905 -83 189 -267 343 -471
395 -73 19 -250 26 -309 13z m200 -53 c15 -17 16 -24 5 -49 -6 -16 -9 -35 -5
-40 10 -17 -21 -13 -35 4 -7 8 -23 15 -36 15 -15 0 -24 -6 -24 -15 0 -8 -9
-15 -20 -15 -18 0 -20 7 -20 60 l0 60 58 0 c46 0 63 -4 77 -20z m170 -24 c87
-37 56 -143 -35 -121 -73 18 -94 105 -30 128 24 8 28 8 65 -7z m-487 -78 c39
-27 50 -57 15 -44 -19 8 -53 -10 -79 -41 l-21 -25 -7 64 c-5 52 -3 65 10 75
18 13 19 13 82 -29z m652 -13 c8 -9 10 -28 6 -50 l-7 -35 38 5 c63 9 71 -5 33
-59 -19 -25 -37 -46 -41 -46 -17 0 -19 21 -5 42 23 33 20 38 -16 27 -18 -5
-34 -9 -35 -9 -2 0 -3 19 -3 42 l0 41 -25 -23 c-18 -17 -28 -21 -36 -13 -8 8
-1 22 27 51 45 46 48 47 64 27z m-841 -76 c-21 -27 -28 -44 -22 -50 7 -7 17
-2 31 15 11 14 23 26 26 26 12 0 6 -24 -11 -42 -14 -16 -15 -23 -5 -38 8 -13
8 -21 1 -25 -10 -7 -26 2 -72 44 l-27 25 47 48 c55 56 77 54 32 -3z m588 23
c160 -50 297 -203 332 -370 35 -168 -12 -324 -134 -447 -187 -187 -487 -192
-683 -10 -157 145 -197 388 -96 587 55 108 182 210 303 244 71 19 209 17 278
-4z m438 -172 c27 -53 31 -70 15 -70 -5 0 -19 18 -30 40 -11 22 -25 40 -30 40
-12 0 -13 -17 -1 -24 5 -3 11 -15 14 -26 8 -29 -17 -25 -31 6 -7 14 -17 22
-22 19 -6 -4 -2 -22 11 -47 12 -24 17 -44 12 -49 -6 -6 -21 16 -38 51 -16 33
-27 62 -24 64 8 7 84 45 91 46 4 0 19 -22 33 -50z m-1045 -5 c0 -3 -11 -28
-25 -55 l-25 -50 -50 25 c-28 14 -50 29 -50 35 0 20 20 19 55 -1 20 -12 37
-20 39 -18 2 2 11 19 20 37 14 27 36 44 36 27z m-74 -163 c-19 -23 -31 -88
-17 -96 14 -9 14 -26 1 -26 -5 0 -30 15 -54 33 -65 47 -62 70 12 95 62 21 81
19 58 -6z m1161 6 c17 -16 23 -32 23 -64 0 -103 -103 -99 -117 4 -4 32 -1 44
16 61 27 27 49 27 78 -1z"/>
<path d="M720 1355 c0 -10 11 -15 35 -15 24 0 35 5 35 15 0 10 -11 15 -35 15
-24 0 -35 -5 -35 -15z"/>
<path d="M933 1333 c-24 -9 -15 -53 12 -63 34 -13 55 -3 55 26 0 17 -8 27 -26
34 -14 6 -26 10 -27 9 -1 0 -8 -3 -14 -6z"/>
<path d="M430 1260 c0 -22 1 -23 24 -14 13 5 14 9 5 20 -16 20 -29 17 -29 -6z"/>
<path d="M710 1200 c-10 -6 -5 -9 18 -8 22 1 29 4 20 9 -16 11 -20 11 -38 -1z"/>
<path d="M618 1186 l-48 -9 2 -181 2 -181 3 173 c2 94 7 172 11 173 4 0 14 2
22 5 8 2 31 7 50 12 52 12 14 20 -42 8z"/>
<path d="M478 1125 l-48 -35 0 -145 0 -145 -75 0 -75 0 0 -55 0 -55 75 0 75 0
0 -149 0 -149 53 -36 c29 -20 55 -36 59 -36 4 0 9 82 10 183 l3 182 68 3 c62
3 68 5 62 22 -3 11 -2 35 4 54 l9 35 -71 3 -72 3 -3 178 c-2 132 -6 177 -15
177 -6 0 -33 -16 -59 -35z"/>
<path d="M988 1108 c-13 -13 -32 -18 -66 -18 -36 0 -54 -5 -67 -20 -14 -15
-31 -20 -68 -20 l-50 0 23 -25 c20 -22 32 -25 87 -25 35 0 63 -4 63 -10 0 -6
-29 -10 -68 -10 -54 0 -72 -4 -85 -18 -36 -40 -24 -45 86 -39 109 7 147 -3
134 -35 -4 -12 -27 -17 -95 -20 -99 -5 -130 -18 -162 -71 -25 -41 -25 -83 0
-125 33 -54 73 -72 170 -74 l85 -1 -85 -7 c-97 -7 -123 -18 -146 -61 -35 -68
20 -139 106 -139 58 0 85 -26 69 -66 -9 -24 -8 -24 21 -9 52 27 66 83 31 126
-16 20 -32 25 -88 30 l-68 6 71 1 c98 3 130 10 159 40 39 39 50 95 28 140 -26
53 -70 72 -173 73 l-85 2 85 7 c103 8 159 34 196 90 29 43 40 108 30 165 -8
39 -55 99 -95 119 -23 11 -28 10 -43 -6z"/>
<path d="M382 1033 c-56 -71 -115 -222 -82 -211 7 2 15 11 16 19 9 48 16 65
44 114 17 30 38 59 47 63 8 5 13 19 11 33 -3 22 -5 21 -36 -18z"/>
<path d="M715 965 c-8 -14 -22 -36 -30 -50 -9 -14 -23 -25 -33 -26 -9 0 -12
-3 -5 -5 15 -7 53 13 53 28 0 6 11 26 26 45 14 18 20 33 15 33 -6 0 -17 -11
-26 -25z"/>
<path d="M713 904 c7 -7 168 -6 175 1 3 3 -37 5 -88 5 -51 0 -91 -3 -87 -6z"/>
<path d="M913 903 c9 -2 23 -2 30 0 6 3 -1 5 -18 5 -16 0 -22 -2 -12 -5z"/>
<path d="M1105 809 c-4 -6 -25 -24 -47 -40 -23 -16 -35 -29 -27 -29 19 1 105
80 86 80 -3 0 -9 -5 -12 -11z"/>
<path d="M302 633 c12 -46 57 -137 64 -130 3 2 -5 20 -16 40 -19 31 -24 48
-34 97 -2 9 7 17 23 21 23 6 21 7 -11 8 l-36 1 10 -37z"/>
<path d="M572 488 l2 -183 3 175 c3 124 7 176 16 182 8 5 7 8 -5 8 -17 0 -18
-14 -16 -182z"/>
<path d="M696 657 c3 -10 9 -15 12 -12 3 3 0 11 -7 18 -10 9 -11 8 -5 -6z"/>
<path d="M724 621 c7 -11 46 -35 46 -28 0 3 -12 12 -26 22 -15 9 -23 12 -20 6z"/>
<path d="M1102 600 c0 -14 2 -19 5 -12 2 6 2 18 0 25 -3 6 -5 1 -5 -13z"/>
<path d="M1051 500 c-13 -11 -19 -20 -14 -20 6 0 18 9 28 20 23 25 17 25 -14
0z"/>
<path d="M767 385 c12 -8 37 -17 55 -20 l33 -5 -35 11 c-19 6 -39 15 -44 20
-6 5 -15 9 -20 9 -6 0 -1 -7 11 -15z"/>
<path d="M142 843 c-10 -4 -10 -8 -1 -19 16 -20 29 -17 29 6 0 20 -5 23 -28
13z"/>
<path d="M1322 858 c-16 -16 -15 -50 2 -74 12 -15 18 -17 33 -8 24 15 28 57 8
78 -20 19 -27 20 -43 4z"/>
</g>
</svg>
