<?xml version="1.0" standalone="no"?>
<!DOCTYPE svg PUBLIC "-//W3C//DTD SVG 20010904//EN"
 "http://www.w3.org/TR/2001/REC-SVG-20010904/DTD/svg10.dtd">
<svg version="1.0" xmlns="http://www.w3.org/2000/svg"
 width="4096.000000pt" height="4096.000000pt" viewBox="0 0 4096.000000 4096.000000"
 preserveAspectRatio="xMidYMid meet">

<g transform="translate(0.000000,4096.000000) scale(0.100000,-0.100000)"
fill="#000000" stroke="none">
<path d="M12030 28474 c-214 -12 -416 -28 -569 -45 -1412 -156 -2765 -694
-3906 -1552 -1299 -976 -2266 -2311 -2787 -3847 -485 -1432 -548 -3013 -177
-4493 280 -1116 805 -2170 1528 -3067 341 -423 801 -882 1219 -1219 1677
-1349 3808 -1965 5942 -1716 2173 253 4156 1397 5475 3160 509 680 897 1414
1166 2204 191 559 314 1109 378 1686 30 270 41 434 51 819 10 360 25 511 70
716 195 876 783 1633 1578 2030 331 165 586 242 1011 305 175 25 304 68 359
118 l22 20 0 2444 0 2443 -97 0 c-385 -1 -947 -54 -1378 -131 -2471 -442
-4606 -2047 -5734 -4311 -485 -972 -754 -1978 -826 -3088 -3 -52 -10 -246 -15
-430 -10 -373 -25 -506 -84 -745 -136 -552 -412 -1034 -818 -1431 -461 -451
-1019 -727 -1668 -825 -134 -21 -191 -24 -425 -23 -228 0 -292 4 -415 23 -679
105 -1262 403 -1727 884 -452 467 -720 1021 -820 1692 -27 185 -24 610 6 805
83 542 289 1021 623 1443 104 132 344 371 478 477 1022 810 2431 869 3515 148
164 -109 270 -194 411 -331 l112 -107 27 112 c379 1546 1187 2997 2308 4144
92 94 167 174 167 177 0 11 -492 333 -640 419 -1063 619 -2183 971 -3410 1073
-173 15 -804 27 -950 19z"/>
<path d="M24350 26110 l0 -2370 28 -6 c170 -36 301 -92 474 -202 237 -150 463
-276 1013 -562 968 -504 1384 -748 1770 -1037 381 -286 625 -536 850 -873 164
-245 198 -324 499 -1153 92 -251 221 -611 287 -800 143 -405 223 -611 319
-815 369 -790 776 -1264 1350 -1571 170 -91 172 -95 55 -131 -112 -35 -213
-37 -318 -6 -191 57 -262 109 -572 420 -578 580 -688 661 -784 580 -28 -23
-31 -31 -31 -82 1 -69 29 -142 90 -232 67 -100 359 -483 448 -590 125 -148
334 -347 482 -457 74 -55 148 -114 163 -131 l29 -30 -39 -13 c-59 -21 -230
-16 -337 10 -233 56 -432 161 -826 435 -202 140 -259 170 -330 170 -88 1 -164
-54 -320 -230 -99 -112 -166 -163 -255 -195 -53 -19 -91 -23 -310 -30 -218 -6
-263 -11 -351 -33 -183 -46 -317 -106 -506 -227 -131 -85 -304 -176 -413 -219
-199 -79 -406 -5 -499 178 -35 68 -46 145 -46 311 0 240 -9 253 -172 249 -133
-3 -158 9 -158 78 0 55 16 102 137 414 157 404 226 544 414 846 175 281 263
481 264 596 0 49 -4 62 -26 84 -33 32 -94 42 -135 21 -16 -9 -123 -106 -238
-216 -114 -111 -236 -221 -270 -245 -121 -86 -261 -151 -412 -190 -90 -23
-458 -76 -530 -76 l-64 0 0 41 c0 23 18 98 40 168 91 282 166 652 191 938 15
163 4 346 -31 545 -37 213 -73 297 -142 331 -31 15 -44 16 -77 7 -47 -13 -96
-65 -110 -117 -5 -21 -12 -182 -15 -358 -7 -443 -38 -669 -131 -952 -86 -261
-142 -345 -374 -557 -175 -161 -210 -201 -255 -290 -29 -57 -31 -68 -31 -171
0 -104 2 -114 32 -175 33 -67 294 -430 466 -650 54 -69 118 -159 143 -200 71
-119 114 -274 114 -409 1 -102 17 -207 40 -252 l21 -41 27 18 c53 33 72 58
107 143 73 174 100 349 84 541 -13 143 -36 188 -254 493 -102 144 -206 303
-247 379 -80 147 -80 138 10 198 66 44 119 42 172 -6 71 -65 580 -845 620
-950 43 -116 46 -246 9 -412 -5 -24 -30 -159 -54 -300 -47 -269 -64 -332 -99
-370 -39 -44 -75 -55 -209 -63 -111 -7 -137 -12 -191 -37 -64 -30 -92 -57
-183 -182 -73 -98 -141 -144 -345 -234 l-58 -25 0 -1175 0 -1176 133 0 c194 0
566 18 767 35 2346 209 4474 1471 5800 3440 733 1090 1183 2363 1294 3665 32
370 35 563 35 2332 l1 1368 1186 2 1186 3 904 2510 c497 1381 915 2540 929
2578 l25 67 -6130 0 -6130 0 0 -2370z"/>
<path d="M24489 22460 c-44 -13 -79 -41 -103 -84 -33 -56 -39 -96 -26 -148 17
-61 128 -166 325 -307 221 -158 332 -248 456 -371 96 -95 209 -236 268 -332
53 -88 119 -111 171 -60 35 36 47 110 30 202 -43 247 -201 504 -468 761 -258
249 -514 382 -653 339z"/>
<path d="M27524 19689 c-110 -31 -274 -283 -365 -561 -59 -181 -52 -292 23
-338 41 -25 119 -27 157 -4 15 9 56 57 91 106 96 136 132 150 250 100 75 -32
147 -79 310 -203 183 -138 247 -217 306 -373 40 -105 81 -183 106 -200 12 -9
42 -16 66 -16 131 0 164 108 107 355 -45 198 -109 335 -208 442 -23 25 -95 91
-160 145 -132 112 -242 213 -432 399 -156 152 -182 168 -251 148z"/>
<path d="M22508 17514 c-37 -20 -61 -68 -54 -108 4 -17 24 -78 47 -136 41
-107 89 -276 89 -312 0 -45 -26 -104 -62 -140 -60 -60 -128 -74 -413 -87 -132
-6 -348 -22 -480 -35 -344 -36 -525 -46 -812 -46 l-253 0 -96 -192 c-316 -632
-712 -1229 -1191 -1795 -162 -192 -399 -449 -526 -569 -55 -52 -98 -96 -96
-98 29 -24 299 -206 414 -279 444 -280 988 -551 1460 -727 677 -252 1379 -412
2085 -475 194 -17 535 -35 678 -35 l92 0 0 946 0 945 -47 -8 c-137 -23 -240
13 -339 119 -77 83 -111 140 -205 334 -55 112 -88 170 -106 181 -20 13 -57 19
-149 23 -113 6 -126 8 -171 36 -59 37 -182 182 -286 338 -100 150 -115 180
-97 201 8 9 26 23 42 31 32 16 463 91 579 101 169 13 220 -36 405 -380 75
-142 118 -194 193 -231 179 -91 514 -17 780 172 140 99 283 259 337 375 50
112 27 196 -104 370 -130 172 -298 321 -488 433 -97 57 -126 71 -297 140 -178
72 -281 138 -416 269 -128 123 -171 187 -263 393 -43 97 -88 190 -98 207 -33
53 -97 69 -152 39z m1213 -1536 c61 -77 90 -149 96 -238 5 -68 3 -80 -24 -130
-48 -92 -181 -160 -318 -162 -107 -2 -140 31 -216 216 -35 86 -69 217 -69 269
0 22 7 25 139 51 138 27 243 42 313 45 34 1 42 -4 79 -51z"/>
<path d="M27779 17146 c-191 -66 -294 -173 -319 -333 -10 -60 0 -155 19 -192
6 -10 31 -27 56 -37 59 -22 197 -15 275 15 139 52 190 145 190 345 0 117 -13
169 -53 202 -36 30 -80 31 -168 0z"/>
</g>
</svg>
