<svg id="e6SGmvI9zBp1" xmlns="http://www.w3.org/2000/svg" xmlns:xlink="http://www.w3.org/1999/xlink" viewBox="0 0 9000 2500" shape-rendering="geometricPrecision" text-rendering="geometricPrecision" project-id="b4ef8e398ad642c690a6d7ce345edd7c" export-id="f079abca2996459fb33d11b9dbe83ad3" cached="false" style="width: 40px; height: 40px; max-width: none; max-height: none; object-fit: contain;"><defs><linearGradient id="e6SGmvI9zBp4-fill" x1="531.459418" y1="-22.671578" x2="747.684196" y2="193.542872" spreadMethod="pad" gradientUnits="userSpaceOnUse" gradientTransform="translate(0 0)"><stop id="e6SGmvI9zBp4-fill-0" offset="0%" stop-color="#396"></stop><stop id="e6SGmvI9zBp4-fill-1" offset="100%" stop-color="#004f32"></stop></linearGradient></defs><path d="M639.6,235.4c-1.5.1-3,.7-4.1,1.8-.1.1-41.5,39.6-41.5,39.6-15.3,14.7-35.5,8.6-37.7,7.8l-177-48.3c-33.8-10.2-40.5-21.2-45.6-34.5c0,0-3-8.3-10.3-10.5L107.1,127.8c-8.8-2.7-13.7-5.2-17.1-11.9L78,95c-2.6-5-7.4-5.5-7.7-5.6C54,87.2,49.2,78,47.2,74.2L37.5,57.3c-3-5.3-7.3-5.7-7.5-5.7-9.3-.6-13.7-2.9-17.6-9.2L3,26.5c-4.6-8.6-3-14.7-.9-18.3C6.6,0.7,14.9,0.1,18.2,0h517.2c14.6,0,26.5,4.4,35.2,13.2c6.3,6.3,10.6,14.4,12.9,24.3c0,.2.6,2.3,5.1,2.3h102.2c4.4,0,5-2.1,5.1-2.3c2.2-9.8,6.6-18,12.8-24.3C717.4,4.4,729.2,0,743.8,0h517.2c3.3.1,11.6.7,16.1,8.1c2.1,3.6,3.7,9.8-.9,18.3l-9.5,15.8c-3.8,6.3-8.3,8.7-17.6,9.2-.1,0-4.5.5-7.5,5.7L1231.9,74c-2,3.9-6.8,13-23.2,15.2-.3,0-5.1.6-7.7,5.6l-11.9,21c-3.5,6.7-8.3,9.2-17.2,11.9L955.6,191.2c-7.4,2.2-10.3,10.5-10.3,10.5-5.2,13.4-11.9,24.3-45.6,34.5l-177,48.3c-2.2.7-22.4,6.9-37.7-7.8c0,0-41.4-39.5-41.5-39.6-.9-1-2.4-1.6-3.9-1.7Z" transform="matrix(7 0 0 7 22.784079 248.031221)"></path><path d="M705.2,39.6c1.8-8,5.3-14.6,10.2-19.5c6.9-6.9,16.5-10.4,28.4-10.4h237.6c-8.2,6.1-12.5,13.8-12.7,14.4-2.7,5.2-6.2,11.2-10.3,17.9h-254.1c.5-1,.9-2.4.9-2.4Zm562.5-17.7l-9.3,15.4c-1.7,2.9-2.8,4.2-9.9,4.6h-281.4c3.1-5.3,5.9-10.2,8.1-14.4.1-.1,10-17.9,27.7-17.9h257.7c2.7.1,6.2.4,8.1,3.5.2.4.8,1.3.8,2.8.1,1.4-.4,3.3-1.8,6Zm-34.4,30.5l-9.8,17.2c-1.3,2.6-3.4,6.5-10,8.8-5.5,1.4-16.4.5-20.2,0L954,62.6c3.1-4.6,6-9,8.6-13.2h272.8c-.8,1-1.5,2-2.1,3Zm-40.7,38c.1-.1-9.4,16.6-11.4,20.1-.5.7-3.2,3.6-11.9,2.4L940,82.2c3.1-4.1,6.1-8.2,8.9-12.1l243.6,16.2c.4,0,1.4.2,2.9.3-1.1,1-2,2.3-2.8,3.8ZM1113.7,135c-8.6,2.3-25.5-.3-31.4-1.5L924.7,101.1c3.4-4.1,6.8-8.1,9.9-12.1l230.3,30.9-51.2,15.1Zm-78.1,22.9c-11.1,3-25.5-1.8-25.7-1.9l-.2-.1-105.5-32.5c5.2-5.3,10.2-10.6,14.9-15.9l161.7,33.2c.4.1,3.7.7,8.3,1.4l-53.5,15.8Zm-82.4,24.2c-7.5,2-18.5-2.3-22.2-4.1l-57.2-26.8c8.4-6.9,16.6-14.2,24.4-21.8l109.4,33.8c.2.1,2.2.7,5.2,1.4l-59.6,17.5Zm-16.8,16.5c-3.2,8.2-6.5,16.6-28.9,25-9.3,2.9-20.3-5.3-20.4-5.4l-53.5-38.3c11.6-7.1,22.8-15,33.8-23.5l60.4,28.3c.3.2,6.6,3.3,14.1,4.7-3.6,4.1-5.3,8.3-5.5,9.2Zm-84.6,40.8l-8.4,2.3c-7.1,1.7-15.7-5.3-18.5-8.2c0,0-13.6-14.1-31.1-32.4c11.2-5.1,22.1-10.7,32.7-17l56,40.1c.2.2,3.4,2.6,8.1,4.6l-38.8,10.6Zm-74,20.2c-5.9.9-12.8-8.8-14.8-12.4l-16.9-28.6c13.8-3.9,27.2-8.7,40.4-14.4l32.9,34.4c.3.3,3.9,4.1,9.2,7.1l-50.8,13.9Zm-56.1,15.3c-4,.9-7.3.5-10.2-1.2-6.2-3.8-8.3-12.5-8.4-13l-8.6-31.1c14.9-2.1,29.6-5,44.2-8.9L756.6,251c.6,1.1,4.2,7.4,9.7,11.8l-44.6,12.1Zm-36.4-11.3c0,0-24-22.9-32.1-30.6c11.3-.4,22.5-1.2,33.7-2.5l8.8,31.8c.2,1.1,2,8.1,6.9,13.6-6.7-1.9-8.7-3.9-17.3-12.3Zm-42-37.8v-96.9h15.5l26.1,94.3c-13.6,1.6-27.4,2.4-41.6,2.6Zm-49.1-2.6l26.1-94.3h15.5v96.8c-13.9-.1-27.8-.9-41.6-2.5Zm-6.8,46.6c-3,3-6.8,5.1-10.9,6.1c4.9-5.6,6.7-12.5,6.9-13.6l8.8-31.7c11.1,1.3,22.3,2.1,33.7,2.5-9.1,8.6-38.5,36.7-38.5,36.7Zm-11.3-9.2c0,.1-2,9.2-8.4,13.1-2.9,1.8-6.2,2.1-10.2,1.2L513,262.8c5.4-4.4,9.1-10.8,9.7-11.9c0,0,7.5-12.7,17.8-30.1c14.4,3.8,29.1,6.8,44.2,8.8l-8.6,31Zm-74.7-1l-50.9-13.9c5.3-3,8.9-6.8,9.2-7.1l32.9-34.4c13.2,5.6,26.6,10.4,40.4,14.4l-16.8,28.5c-2,3.8-8.9,13.5-14.8,12.5Zm-65.7-17.9l-47.3-12.9c4.7-2.1,7.9-4.5,8.2-4.7l55.9-40c10.6,6.2,21.6,11.9,32.8,17l-31.1,32.4c-2.7,2.9-11.4,9.9-18.5,8.2Zm-64-18.1c-22.3-8.4-25.7-16.8-28.9-25-1.3-3.4-3.2-6.5-5.6-9.2c4.9-1,9.7-2.6,14.2-4.8-.1,0,30.2-14.1,60.3-28.2c10.9,8.6,22.2,16.4,33.7,23.5L392,218.1c0,.2-11.1,8.4-20.3,5.5Zm-45.8-41.5l-59.7-17.5c1.8-.4,3.6-.9,5.3-1.4l109.3-33.7c7.6,7.4,15.7,14.7,24.4,21.8L348.1,178c-3.7,1.8-14.7,6.1-22.2,4.1Zm-82.3-24.2c-17.6-5.2-36.1-10.6-53.6-15.7c4.7-.7,8-1.3,8.3-1.4c0,0,114.2-23.4,161.7-33.2c4.7,5.3,9.6,10.6,14.9,15.9L269.3,156c-.2,0-14.6,4.8-25.7,1.9ZM165.5,135c-23.8-7-43.1-12.7-51.3-15.1L344.5,89c3.1,4,6.4,8,9.9,12L196.8,133.4c-5.9,1.2-22.7,3.8-31.3,1.6Zm-55.6-22.1c-8.7,1.2-11.4-1.7-11.9-2.4L86.5,90.3c-.7-1.4-1.6-2.7-2.7-3.9L330.3,70c2.8,3.9,5.8,8,8.9,12.1L109.9,112.9ZM65.7,78.5c-6.6-2.3-8.7-6.2-10-8.8-4-6.8-9.3-17-11.9-20.3h272.8c2.6,4.2,5.5,8.6,8.6,13.2L85.8,78.5c-3.7.4-14.6,1.3-20.1,0Zm-35-36.6c-6.6-.5-8-1.3-10-4.7c0,0-8.6-14.3-9.3-15.4-1.4-2.6-1.9-4.6-1.8-5.9.2-3.5,2.5-6.2,8.8-6.3h257.8c17.4,0,27.7,17.9,27.7,17.9c2.3,4.2,5,9,8.1,14.4h-281.3ZM535.3,9.6c12,0,21.5,3.5,28.4,10.4c5,5,8.4,11.5,10.3,19.5c0,0,.4,1.4.8,2.4h-254c-3.5-5.9-7-11.9-10.3-17.9-3.3-5.6-7.6-10.5-12.7-14.4h237.5ZM903.2,59.2v-9.8h50.5c-2.6,4-5.4,8.3-8.4,12.6l-42.1-2.8Zm0,18v-10.2l36.9,2.4c-2.7,3.8-5.6,7.6-8.7,11.6l-28.2-3.8Zm0,19.4v-11.8L926,87.9c-3.1,3.8-6.3,7.6-9.6,11.5l-13.2-2.8Zm0,7.7l7.4,1.5c-2.4,2.6-4.9,5.3-7.4,8v-9.5Zm-76.9,24.6h61.7c-6.3,6.2-21.1,18.3-21.6,18.7-15.1-7-29.7-13.8-40.1-18.7Zm-64,0h46.3l51.1,23.9c-10.5,8.1-21.4,15.5-32.8,22.4l-64.6-46.3Zm-37.7,0h24.9l70.4,50.4c-10.2,5.9-20.8,11.2-31.6,16-23.2-24.1-51.1-53.3-63.7-66.4Zm-31.5,0h21.1L781,198.5c-12.7,5.3-25.6,9.8-38.8,13.5l-49.1-83.1Zm-8.7,0L734.7,214c-13.9,3.6-28,6.4-42.2,8.3l-25.9-93.4h17.8Zm-89.7,0h17.9l-25.9,93.4c-14.2-1.9-28.3-4.7-42.2-8.3c18.8-31.8,43.9-74.4,50.2-85.1Zm-29.8,0h21.1L537,212c-13.2-3.7-26.2-8.2-38.8-13.5c26.7-27.9,59-61.5,66.7-69.6Zm-35.2,0h24.8l-63.7,66.4c-10.8-4.8-21.4-10.1-31.6-16l70.5-50.4ZM412.8,147.6c-.6-.5-15.3-12.9-21.6-18.7h61.6l-40,18.7Zm57.7-18.7h46.3l-64.7,46.3c-11.3-6.8-22.3-14.3-32.7-22.4l51.1-23.9Zm-94.6-24.6v9.4c-2.5-2.6-5-5.3-7.4-7.9l7.4-1.5Zm0-19.5v11.8l-13.1,2.7c-3.3-3.8-6.5-7.6-9.6-11.5l22.7-3Zm0-17.8v10.2L347.8,81c-2.9-3.8-5.8-7.7-8.7-11.6L375.9,67Zm0-7.8l-42,2.8c-2.9-4.2-5.7-8.4-8.4-12.6h50.4v9.8Z" transform="matrix(7 0 0 7 23.083773 251.122925)" fill="#fff"></path><path d="M383.5,121.4l-.1-.1v-71.9h512.4v71.9l-.1.1h-512.2Z" transform="matrix(7 0 0 7 22.790702 252.432285)" fill="url(#e6SGmvI9zBp4-fill)"></path><path d="M417.4,60.9h-2.1l-21.9,49h5.9l.1-.3c1.8-6,4-11.7,6.3-17.1l.5-1.2h16.9c2.3,5.2,4.6,11.2,7.1,18.3l.1.3h8.2l-21.1-49Zm-9.6,26.7c.4-1.1,6.2-14.5,6.9-16.1.7,1.6,6.5,15.1,7,16.1h-13.9Zm33.1,18.8l.2.2c2.6,2.8,8.4,4.1,11.6,4.1c10.3,0,17.5-6.6,17.5-16.1c0-7.9-6-10.2-11.7-12.5-5.1-2-10-3.9-10-9.7c0-4.4,3.5-7.6,8.3-7.6c3.8,0,6.7,2,8.2,5.7l.1.3h1.3l2-6.2-.2-.2c-2.8-2.5-7.1-3.4-10.1-3.4-9.6,0-15.8,5.3-15.8,13.6c0,8.5,6.3,10.9,11.9,13.1c5,1.9,9.7,3.8,9.7,9.6c0,5.4-4,9.6-9.1,9.6-4.7,0-7.8-2-10.8-7l-.1-.2h-1.3l-1.7,6.7Zm67.8-44.5h-36v5h.5c4.1-.4,8.1-.8,14.6-.8v44h6.9v-44c4.9,0,9.6.3,13.9.8l.5.1v-5.1h-.4Zm24.8-1c-15.3,0-26,10.3-26,25c0,14.9,10.4,24.8,25.8,24.8c16,0,26.7-10.4,26.7-25.8.1-16.6-13.2-24-26.5-24Zm12.8,41.3c-3.4,3.6-7.7,5.4-12.7,5.4-11.2,0-18.4-8.2-18.4-20.9c0-14,7.3-22.7,19-22.7c5.5,0,10.8,2.4,14,6.5c3.5,4.5,4.3,9.3,4.3,14.9v1c0,4.6-1.9,11.2-6.2,15.8Zm61.8-40.3h-4.3v35.5h-.1c-.2-.3-32.8-35.5-32.8-35.5h-3.3v48h4.7v-37.1h.1L602,105.6l3.7,4.3h2.7v-48h-.3Zm77.5,0h-1.7L672.3,83c0,0-7.4,13.4-8,14.6-7.2-12-13.6-24.5-19.1-35.4l-.1-.2h-2.4v.4c-.7,7.1-4.8,36-6.6,47.1l-.1.5h5.8v-.4c0-6.8,1.2-16.8,2.5-27.5l.8-6.6c.8,1.6,9.8,18.7,13.3,25.8l3.9,8h1.3l.1-.3c4-9.2,9.7-19.7,17.4-33.6c1.1,8.3,2.6,24.8,3.4,34.2v.4h7.4l-.1-.5c-1.7-11.6-3.5-27-5.6-47.1v-.4l-.6-.1Zm32.9-1h-2.1l-21.9,49h6l.1-.3c1.8-6,4.1-11.7,6.3-17.3l.4-1h16.9c2.3,5.3,4.7,11.4,7.1,18.3l.1.3h8.2l-21.1-49Zm-9.6,26.7c.5-1.1,6.2-14.5,6.9-16.1l7,16.1h-13.9Zm51.7-1.4c8.7-1.8,13.8-6.7,13.8-13.3c0-7.3-5.1-10.9-15.7-10.9h-15v48h6.9v-23h2c.2.3,5.4,6.3,5.4,6.3l8.1,10.5l4.5,6.1h9l-19-23.7Zm-10-2.7v-18.2c2.9-.1,7.3-.3,9.7.1c4.8.8,7.2,3.6,7.2,8.3c0,4.8-3.2,8.3-8.5,9.4-3,.6-6.7.5-8.4.4Zm63.8-21.6h-36v5h.5c4.1-.4,8.1-.8,14.6-.8v44h7v-44c4.9,0,9.6.3,13.9.8l.5.1v-5.1h-.5Zm6.1,48h6.5v-48h-6.5v48Zm52.9-48v35.5h-.1L840.5,61.9h-3.3v48h4.7v-37.1h.1l29.7,32.8l3.7,4.3h2.7v-48h-4.7Z" transform="matrix(7 0 0 7 45.890462 250.032255)" fill="#fff"></path></svg>