<svg xmlns="http://www.w3.org/2000/svg" viewBox="-0.041 0.5 370 370" style="width: 150px; height: 150px; max-width: none; max-height: none; object-fit: contain;">
  <g transform="matrix(3 0 0 3 2.174345 22.75)">
    <path d="M67.959271,0.5c-29.700154,0-53.700279,24.098-53.700279,53.803c0,1.099,0,2.099.100001,3.099h-7.000036c-.400002,0-.600003.196-.802004.5-.098001.295-6.297033,11.196-6.500034,11.5-.098001.295-.098001.4.203001.4h16.297085C23.260039,91.903,43.760145,108,68.057271,108c29.703154,0,53.803279-24.098,53.803279-53.803C121.76055,24.598,97.660425,0.5,67.959271,0.5ZM29.557072,69.803h14.303074l-6.901036,12c-3.000016-3.5-5.600029-7.5-7.402038-12ZM67.960271,95.697c-11.298059,0-21.500112-4.5-28.90215-11.795h11.60406c0,0,33.395173-58.902,33.598174-59.205.199001-.197.100001-.394-.203001-.394h-13.597071c-.298002,0-.298002.099-.402002.197-.098001.197-18.896098,32.902-18.896098,32.902h-24.500127c-.104001-1-.104001-2.1-.104001-3.1c0-22.9,18.500096-41.5,41.402215-41.5c11.702061,0,22.202115,4.895,29.800155,12.698-3.300017,5.5-17.900093,30.402-19.900103,34-1.100006-2.598-6.400033-2.098-9.198048-2.197-1.202006,2-6.702035,12.5-6.702035,12.5h5.80003c2.700014,0,3.000016,2.795,1.90201,4.599-1.104006,1.795-5.401028,9.5-5.401028,9.5h14.100073c0,0,17.30109-30.205,27.099141-47.304C108.058479,42,109.460486,48,109.460486,54.303c0,22.795-18.600097,41.394-41.500215,41.394Z" fill="#ed1a3b" fill-rule="evenodd"></path>
  </g>
</svg>
