<svg id="Layer_1" xmlns="http://www.w3.org/2000/svg" xmlns:xlink="http://www.w3.org/1999/xlink" x="0px" y="0px" width="100%" viewBox="0 0 3356 2543" enable-background="new 0 0 3356 2543" xml:space="preserve" style="width: 28px; height: 28px; max-width: none; max-height: none; object-fit: contain;"><path fill="transparent" opacity="1" stroke="none" d=" M2.000000,68.000000  C2.000000,46.010464 2.000000,24.020926 2.000000,2.000000  C562.722717,2.000000 1123.445435,2.000000 1685.215210,2.762332  C1685.512207,6.004017 1685.078247,8.636078 1683.964966,10.939919  C1666.594116,46.889698 1649.210449,82.833817 1631.678467,118.705315  C1606.397095,170.432541 1581.021240,222.113693 1555.632935,273.788635  C1533.617188,318.599152 1511.538574,363.378693 1489.469116,408.162842  C1466.077271,455.630829 1442.658813,503.085754 1419.260254,550.550537  C1397.625977,594.436218 1375.981812,638.316895 1354.380981,682.219055  C1334.690552,722.238281 1315.046265,762.280212 1295.392944,802.317688  C1268.846802,856.397034 1242.319092,910.485535 1215.769287,964.563171  C1189.368774,1018.336609 1162.946411,1072.099365 1136.541748,1125.870850  C1117.472168,1164.704834 1098.435425,1203.554932 1079.348755,1242.380493  C1058.059082,1285.687500 1036.743164,1328.981689 1015.413757,1372.269043  C992.612732,1418.542725 969.775452,1464.798584 946.966797,1511.068604  C923.125183,1559.434204 899.330994,1607.823242 875.457642,1656.173218  C847.015381,1713.776123 818.570251,1771.377808 790.012756,1828.923706  C770.616760,1868.008423 751.005798,1906.986328 731.548340,1946.040649  C729.327698,1950.497925 727.429810,1955.119141 725.466064,1959.700317  C720.429382,1971.450684 721.784058,1982.949341 727.107544,1994.186279  C746.189636,2034.464355 765.379883,2074.691162 784.421082,2114.988525  C805.880920,2160.404297 827.226379,2205.874268 848.617249,2251.322754  C872.553223,2302.178955 896.461121,2353.048584 920.424683,2403.891602  C939.992920,2445.409180 959.610046,2486.903320 979.249695,2528.387207  C981.440247,2533.013916 983.918884,2537.504395 987.311707,2544.092529  C1219.657349,2036.044312 1451.001465,1530.186157 1683.123047,1022.627808  C1694.099121,1045.896240 1704.128784,1067.254272 1714.239502,1088.573730  C1738.755615,1140.267700 1763.315430,1191.940918 1787.846436,1243.627686  C1815.798950,1302.523438 1843.741333,1361.423950 1871.684692,1420.323853  C1896.348145,1472.310059 1921.006958,1524.298462 1945.667847,1576.285767  C1970.331055,1628.278076 1994.994141,1680.270386 2019.657227,1732.262695  C2044.319824,1784.254150 2068.982666,1836.245483 2093.645264,1888.236938  C2118.308105,1940.228394 2142.970703,1992.219849 2167.633545,2044.211304  C2192.296387,2096.202637 2216.968750,2148.189697 2241.619385,2200.186768  C2269.119385,2258.193848 2296.591064,2316.214355 2324.091309,2374.221191  C2348.742188,2426.218262 2373.404297,2478.209473 2398.098145,2530.186279  C2400.026123,2534.244385 2402.240967,2538.166260 2405.093018,2543.626465  C2407.389648,2538.990234 2408.967285,2536.165039 2410.227539,2533.204590  C2419.204102,2512.114990 2428.063232,2490.975586 2437.058105,2469.893799  C2464.581787,2405.385498 2492.188721,2340.912598 2519.689941,2276.394531  C2550.068848,2205.124756 2580.345215,2133.810791 2610.711426,2062.535400  C2620.864502,2038.704224 2631.274902,2014.981934 2641.329590,1991.109619  C2645.477295,1981.262329 2646.304443,1971.005859 2641.532227,1961.109863  C2620.138916,1916.746460 2598.576904,1872.464233 2577.087646,1828.146851  C2556.036865,1784.733154 2535.007568,1741.309204 2513.956787,1697.895508  C2482.163818,1632.326416 2450.350830,1566.766968 2418.565918,1501.193970  C2397.956299,1458.676025 2377.392334,1416.136108 2356.788086,1373.615601  C2329.798828,1317.918823 2302.792236,1262.230469 2275.788574,1206.540771  C2254.592773,1162.828125 2233.390137,1119.118896 2212.191162,1075.407959  C2184.745605,1018.817261 2157.303223,962.224976 2129.854004,905.636108  C2107.781982,860.133301 2085.710449,814.630310 2063.623047,769.135132  C2035.574829,711.362061 2007.507202,653.598450 1979.454102,595.827759  C1957.358643,550.325378 1935.274536,504.817505 1913.181519,459.313965  C1884.688965,400.629669 1856.231812,341.928162 1827.684082,283.270630  C1807.442627,241.679993 1787.057617,200.159225 1766.777954,158.587204  C1760.506104,145.730682 1754.413086,132.787079 1748.163574,119.919579  C1733.043823,88.788429 1717.814087,57.710426 1702.779175,26.538431  C1698.900513,18.496679 1695.578003,10.186753 1692.000000,1.999998  C2247.333252,2.000000 2802.666748,2.000000 3358.000000,2.000000  C3358.000000,12.177258 3358.000000,22.172356 3357.640869,34.090187  C3352.655273,35.673569 3348.028809,35.037933 3343.402344,35.037666  C3174.770020,35.027935 3006.137939,35.077919 2837.505615,35.114216  C2833.840332,35.115005 2830.174072,35.087002 2826.509766,35.012791  C2810.545166,34.689491 2794.582275,34.185612 2778.616699,34.088833  C2772.666504,34.052761 2767.549805,36.306129 2765.317139,42.531437  C2762.999268,48.994034 2760.779053,55.491547 2758.491699,61.965183  C2748.090576,91.406708 2737.706299,120.854263 2727.267334,150.282379  C2714.489258,186.304840 2701.761230,222.345627 2688.824707,258.311188  C2678.784424,286.224457 2668.272705,313.968842 2658.328613,341.915710  C2652.663330,357.837677 2648.000000,374.114807 2642.396973,390.060333  C2621.799072,448.681824 2600.964355,507.219971 2580.281738,565.811768  C2563.361084,613.747559 2546.542725,661.719421 2529.656494,709.667297  C2511.932861,759.992859 2494.165771,810.303040 2476.449463,860.631226  C2467.340088,886.508850 2458.370850,912.435852 2449.215820,938.297180  C2427.039551,1000.941040 2404.875244,1063.589478 2382.489014,1126.158325  C2378.771973,1136.546997 2379.076172,1145.951050 2384.281738,1155.874390  C2405.302490,1195.942871 2426.029053,1236.166870 2446.654053,1276.441162  C2468.044189,1318.208618 2489.189941,1360.101074 2510.445312,1401.937378  C2531.698730,1443.768555 2552.966064,1485.592529 2574.207764,1527.429688  C2597.862793,1574.020142 2621.478271,1620.630737 2645.144531,1667.215332  C2663.384033,1703.117920 2681.645752,1739.009399 2699.972168,1774.867798  C2703.261230,1781.303467 2706.911621,1787.554443 2711.243652,1795.434326  C2714.878174,1785.953613 2718.004639,1778.093262 2720.916260,1770.154297  C2735.415527,1730.619141 2749.902100,1691.079224 2764.310059,1651.510742  C2784.973633,1594.763062 2805.441895,1537.943726 2826.228271,1481.241211  C2841.975342,1438.285156 2858.175537,1395.495361 2874.015137,1352.572998  C2888.938477,1312.133667 2903.620605,1271.605469 2918.467529,1231.138062  C2947.960449,1150.751099 2977.509277,1070.384766 3007.004150,989.998596  C3024.852539,941.354004 3042.604980,892.674255 3060.468018,844.034973  C3088.870605,766.695984 3117.393311,689.401062 3145.749268,612.045105  C3183.362549,509.433563 3220.845703,406.774323 3258.419678,304.148346  C3288.579590,221.772919 3318.785156,139.414200 3348.992676,57.056343  C3350.820557,52.073074 3352.746338,47.119671 3354.837646,42.243073  C3355.429932,40.862827 3356.727783,39.132133 3358.000000,42.000000  C3358.000000,876.547913 3358.000000,1711.095825 3358.000000,2546.000000  C2243.943848,2546.000000 1129.887939,2546.000000 14.458032,2545.482910  C11.039943,2543.960693 8.995635,2542.955566 6.974653,2541.976562  C6.997980,2542.002930 7.047364,2542.052979 6.795076,2541.389160  C5.028525,2539.150146 3.514261,2537.575195 1.999999,2536.000000  C2.000000,1717.943970 2.000000,899.887878 2.748963,80.923981  C9.099972,80.290085 8.899207,85.185944 10.174534,88.686043  C22.296259,121.953766 34.257053,155.280136 46.379673,188.547531  C59.237339,223.832077 72.271698,259.052246 85.139877,294.332977  C130.344315,418.270111 175.549332,542.207031 220.679214,666.171326  C259.390900,772.505859 297.983215,878.883911 336.661957,985.230469  C354.558990,1034.438232 372.511383,1083.625854 390.483673,1132.806274  C410.510925,1187.610107 430.574066,1242.400635 450.651550,1297.186035  C461.630493,1327.144165 472.715790,1357.063354 483.675262,1387.028564  C507.252869,1451.494263 530.715393,1516.001953 554.345581,1580.448364  C579.577271,1649.262573 604.944519,1718.026978 630.271301,1786.806152  C631.140747,1789.167480 632.212769,1791.453979 634.104797,1795.946411  C636.575806,1791.416748 638.188660,1788.735107 639.545288,1785.929321  C648.375488,1767.667114 657.069397,1749.338745 665.957703,1731.105103  C693.656006,1674.284668 721.371521,1617.472534 749.176514,1560.704224  C769.816528,1518.564331 790.570618,1476.480225 811.337463,1434.402588  C841.678650,1372.925903 872.032471,1311.455078 902.469604,1250.025879  C916.959717,1220.781494 931.433655,1191.525024 946.354126,1162.499878  C953.406311,1148.781372 953.641418,1135.449341 948.222595,1121.177002  C918.139954,1041.943726 888.308411,962.615173 858.417053,883.309326  C829.710388,807.146729 801.039307,730.970764 772.345947,654.803223  C737.431824,562.122375 702.528687,469.437469 667.586365,376.767273  C643.078918,311.771210 618.311768,246.872192 594.068115,181.778030  C583.415588,153.176147 571.136230,125.111824 564.184814,95.203888  C563.146667,90.737289 561.229370,86.318398 558.924683,82.337143  C554.801331,75.214211 548.886719,69.408417 540.535339,68.248077  C530.822754,66.898621 520.968872,65.747406 511.065765,67.117134  C506.795166,67.707809 502.462006,67.846367 497.685974,68.110519  C496.523041,68.038704 495.973572,68.322212 494.739319,68.929794  C400.133392,68.652153 306.354645,68.234100 212.575394,68.029930  C142.383911,67.877113 72.191818,67.999916 2.000000,68.000000  z"></path><path fill="#00A0DE" opacity="1" stroke="none" d=" M1691.250000,1.999998  C1695.578003,10.186753 1698.900513,18.496679 1702.779175,26.538431  C1717.814087,57.710426 1733.043823,88.788429 1748.163574,119.919579  C1754.413086,132.787079 1760.506104,145.730682 1766.777954,158.587204  C1787.057617,200.159225 1807.442627,241.679993 1827.684082,283.270630  C1856.231812,341.928162 1884.688965,400.629669 1913.181519,459.313965  C1935.274536,504.817505 1957.358643,550.325378 1979.454102,595.827759  C2007.507202,653.598450 2035.574829,711.362061 2063.623047,769.135132  C2085.710449,814.630310 2107.781982,860.133301 2129.854004,905.636108  C2157.303223,962.224976 2184.745605,1018.817261 2212.191162,1075.407959  C2233.390137,1119.118896 2254.592773,1162.828125 2275.788574,1206.540771  C2302.792236,1262.230469 2329.798828,1317.918823 2356.788086,1373.615601  C2377.392334,1416.136108 2397.956299,1458.676025 2418.565918,1501.193970  C2450.350830,1566.766968 2482.163818,1632.326416 2513.956787,1697.895508  C2535.007568,1741.309204 2556.036865,1784.733154 2577.087646,1828.146851  C2598.576904,1872.464233 2620.138916,1916.746460 2641.532227,1961.109863  C2646.304443,1971.005859 2645.477295,1981.262329 2641.329590,1991.109619  C2631.274902,2014.981934 2620.864502,2038.704224 2610.711426,2062.535400  C2580.345215,2133.810791 2550.068848,2205.124756 2519.689941,2276.394531  C2492.188721,2340.912598 2464.581787,2405.385498 2437.058105,2469.893799  C2428.063232,2490.975586 2419.204102,2512.114990 2410.227539,2533.204590  C2408.967285,2536.165039 2407.389648,2538.990234 2405.093018,2543.626465  C2402.240967,2538.166260 2400.026123,2534.244385 2398.098145,2530.186279  C2373.404297,2478.209473 2348.742188,2426.218262 2324.091309,2374.221191  C2296.591064,2316.214355 2269.119385,2258.193848 2241.619385,2200.186768  C2216.968750,2148.189697 2192.296387,2096.202637 2167.633545,2044.211304  C2142.970703,1992.219849 2118.308105,1940.228394 2093.645264,1888.236938  C2068.982666,1836.245483 2044.319824,1784.254150 2019.657227,1732.262695  C1994.994141,1680.270386 1970.331055,1628.278076 1945.667847,1576.285767  C1921.006958,1524.298462 1896.348145,1472.310059 1871.684692,1420.323853  C1843.741333,1361.423950 1815.798950,1302.523438 1787.846436,1243.627686  C1763.315430,1191.940918 1738.755615,1140.267700 1714.239502,1088.573730  C1704.128784,1067.254272 1694.099121,1045.896240 1683.123047,1022.627808  C1451.001465,1530.186157 1219.657349,2036.044312 987.311707,2544.092529  C983.918884,2537.504395 981.440247,2533.013916 979.249695,2528.387207  C959.610046,2486.903320 939.992920,2445.409180 920.424683,2403.891602  C896.461121,2353.048584 872.553223,2302.178955 848.617249,2251.322754  C827.226379,2205.874268 805.880920,2160.404297 784.421082,2114.988525  C765.379883,2074.691162 746.189636,2034.464355 727.107544,1994.186279  C721.784058,1982.949341 720.429382,1971.450684 725.466064,1959.700317  C727.429810,1955.119141 729.327698,1950.497925 731.548340,1946.040649  C751.005798,1906.986328 770.616760,1868.008423 790.012756,1828.923706  C818.570251,1771.377808 847.015381,1713.776123 875.457642,1656.173218  C899.330994,1607.823242 923.125183,1559.434204 946.966797,1511.068604  C969.775452,1464.798584 992.612732,1418.542725 1015.413757,1372.269043  C1036.743164,1328.981689 1058.059082,1285.687500 1079.348755,1242.380493  C1098.435425,1203.554932 1117.472168,1164.704834 1136.541748,1125.870850  C1162.946411,1072.099365 1189.368774,1018.336609 1215.769287,964.563171  C1242.319092,910.485535 1268.846802,856.397034 1295.392944,802.317688  C1315.046265,762.280212 1334.690552,722.238281 1354.380981,682.219055  C1375.981812,638.316895 1397.625977,594.436218 1419.260254,550.550537  C1442.658813,503.085754 1466.077271,455.630829 1489.469116,408.162842  C1511.538574,363.378693 1533.617188,318.599152 1555.632935,273.788635  C1581.021240,222.113693 1606.397095,170.432541 1631.678467,118.705315  C1649.210449,82.833817 1666.594116,46.889698 1683.964966,10.939919  C1685.078247,8.636078 1685.512207,6.004017 1686.131104,2.762332  C1687.500000,2.000000 1689.000000,2.000000 1691.250000,1.999998  z"></path><path fill="#00A0DE" opacity="1" stroke="none" d=" M3358.000000,41.200008  C3356.727783,39.132133 3355.429932,40.862827 3354.837646,42.243073  C3352.746338,47.119671 3350.820557,52.073074 3348.992676,57.056343  C3318.785156,139.414200 3288.579590,221.772919 3258.419678,304.148346  C3220.845703,406.774323 3183.362549,509.433563 3145.749268,612.045105  C3117.393311,689.401062 3088.870605,766.695984 3060.468018,844.034973  C3042.604980,892.674255 3024.852539,941.354004 3007.004150,989.998596  C2977.509277,1070.384766 2947.960449,1150.751099 2918.467529,1231.138062  C2903.620605,1271.605469 2888.938477,1312.133667 2874.015137,1352.572998  C2858.175537,1395.495361 2841.975342,1438.285156 2826.228271,1481.241211  C2805.441895,1537.943726 2784.973633,1594.763062 2764.310059,1651.510742  C2749.902100,1691.079224 2735.415527,1730.619141 2720.916260,1770.154297  C2718.004639,1778.093262 2714.878174,1785.953613 2711.243652,1795.434326  C2706.911621,1787.554443 2703.261230,1781.303467 2699.972168,1774.867798  C2681.645752,1739.009399 2663.384033,1703.117920 2645.144531,1667.215332  C2621.478271,1620.630737 2597.862793,1574.020142 2574.207764,1527.429688  C2552.966064,1485.592529 2531.698730,1443.768555 2510.445312,1401.937378  C2489.189941,1360.101074 2468.044189,1318.208618 2446.654053,1276.441162  C2426.029053,1236.166870 2405.302490,1195.942871 2384.281738,1155.874390  C2379.076172,1145.951050 2378.771973,1136.546997 2382.489014,1126.158325  C2404.875244,1063.589478 2427.039551,1000.941040 2449.215820,938.297180  C2458.370850,912.435852 2467.340088,886.508850 2476.449463,860.631226  C2494.165771,810.303040 2511.932861,759.992859 2529.656494,709.667297  C2546.542725,661.719421 2563.361084,613.747559 2580.281738,565.811768  C2600.964355,507.219971 2621.799072,448.681824 2642.396973,390.060333  C2648.000000,374.114807 2652.663330,357.837677 2658.328613,341.915710  C2668.272705,313.968842 2678.784424,286.224457 2688.824707,258.311188  C2701.761230,222.345627 2714.489258,186.304840 2727.267334,150.282379  C2737.706299,120.854263 2748.090576,91.406708 2758.491699,61.965183  C2760.779053,55.491547 2762.999268,48.994034 2765.317139,42.531437  C2767.549805,36.306129 2772.666504,34.052761 2778.616699,34.088833  C2794.582275,34.185612 2810.545166,34.689491 2826.509766,35.012791  C2830.174072,35.087002 2833.840332,35.115005 2837.505615,35.114216  C3006.137939,35.077919 3174.770020,35.027935 3343.402344,35.037666  C3348.028809,35.037933 3352.655273,35.673569 3357.640869,35.006462  C3358.000000,36.133339 3358.000000,38.266678 3358.000000,41.200008  z"></path><path fill="#00A0DE" opacity="1" stroke="none" d=" M2.000000,68.856926  C72.191818,67.999916 142.383911,67.877113 212.575394,68.029930  C306.354645,68.234100 400.133392,68.652153 495.209412,69.095184  C497.216980,69.130486 497.767273,68.789925 498.157288,68.190323  C502.462006,67.846367 506.795166,67.707809 511.065765,67.117134  C520.968872,65.747406 530.822754,66.898621 540.535339,68.248077  C548.886719,69.408417 554.801331,75.214211 558.924683,82.337143  C561.229370,86.318398 563.146667,90.737289 564.184814,95.203888  C571.136230,125.111824 583.415588,153.176147 594.068115,181.778030  C618.311768,246.872192 643.078918,311.771210 667.586365,376.767273  C702.528687,469.437469 737.431824,562.122375 772.345947,654.803223  C801.039307,730.970764 829.710388,807.146729 858.417053,883.309326  C888.308411,962.615173 918.139954,1041.943726 948.222595,1121.177002  C953.641418,1135.449341 953.406311,1148.781372 946.354126,1162.499878  C931.433655,1191.525024 916.959717,1220.781494 902.469604,1250.025879  C872.032471,1311.455078 841.678650,1372.925903 811.337463,1434.402588  C790.570618,1476.480225 769.816528,1518.564331 749.176514,1560.704224  C721.371521,1617.472534 693.656006,1674.284668 665.957703,1731.105103  C657.069397,1749.338745 648.375488,1767.667114 639.545288,1785.929321  C638.188660,1788.735107 636.575806,1791.416748 634.104797,1795.946411  C632.212769,1791.453979 631.140747,1789.167480 630.271301,1786.806152  C604.944519,1718.026978 579.577271,1649.262573 554.345581,1580.448364  C530.715393,1516.001953 507.252869,1451.494263 483.675262,1387.028564  C472.715790,1357.063354 461.630493,1327.144165 450.651550,1297.186035  C430.574066,1242.400635 410.510925,1187.610107 390.483673,1132.806274  C372.511383,1083.625854 354.558990,1034.438232 336.661957,985.230469  C297.983215,878.883911 259.390900,772.505859 220.679214,666.171326  C175.549332,542.207031 130.344315,418.270111 85.139877,294.332977  C72.271698,259.052246 59.237339,223.832077 46.379673,188.547531  C34.257053,155.280136 22.296259,121.953766 10.174534,88.686043  C8.899207,85.185944 9.099972,80.290085 2.748963,80.008072  C2.000000,76.571281 2.000000,73.142570 2.000000,68.856926  z"></path><path fill="#040000" opacity="1" stroke="none" d=" M7.047338,2542.053223  C7.047364,2542.052979 6.997980,2542.002930 7.136125,2542.655273  C7.516177,2544.205322 7.758083,2545.102539 7.999995,2546.000000  C5.384276,2545.588135 0.975235,2547.863525 2.627707,2541.262451  C4.519381,2541.036865 5.783346,2541.544922 7.047338,2542.053223  z"></path><path fill="#2C3131" opacity="1" stroke="none" d=" M6.795050,2541.389160  C5.783346,2541.544922 4.519381,2541.036865 2.627707,2540.264404  C2.000000,2539.111084 2.000000,2538.222168 1.999999,2536.666504  C3.514261,2537.575195 5.028525,2539.150146 6.795050,2541.389160  z"></path><path fill="#2C3131" opacity="1" stroke="none" d=" M8.749995,2546.000000  C7.758083,2545.102539 7.516177,2544.205322 7.112798,2542.629150  C8.995635,2542.955566 11.039943,2543.960693 13.542126,2545.482910  C12.500000,2546.000000 11.000000,2546.000000 8.749995,2546.000000  z"></path><path fill="#074F6A" opacity="1" stroke="none" d=" M497.685974,68.110519  C497.767273,68.789925 497.216980,69.130486 496.036346,69.046616  C495.973572,68.322212 496.523041,68.038704 497.685974,68.110519  z"></path></svg>